<svg xmlns="http://www.w3.org/2000/svg" height="48" viewBox="0 -960 960 960" width="48"><path d="M27.326-107.37v-108.609q0-38.316 17.696-64.125 17.695-25.809 49.456-40.57Q149-348.196 214.62-365.696q65.619-17.5 144.76-17.5 79.142 0 143.897 17.223 64.755 17.222 122.245 44.821 30.282 15 48.598 40.946 18.315 25.946 18.315 64.253v108.583H27.326Zm77.544-77.543h510.26v-31.696q0-13.647-8.358-21.682-8.359-8.035-18.598-13.274-43.239-19-97.424-36.663-54.185-17.663-131.25-17.663t-131.37 17.902q-54.304 17.902-96.543 36.476-11.912 4.929-19.315 13.044-7.402 8.115-7.402 21.86v31.696Zm254.683-264.652q-71.749 0-117.636-46.319-45.887-46.32-45.887-115.555h-9.807q-10.38 0-16.834-6.945-6.454-6.945-6.454-16.297 0-9.244 6.428-16.097 6.429-6.852 16.767-6.852h10q0-44.522 22.724-79.359 22.723-34.837 59.385-54.598v39.148q0 7.015 4.903 11.814 4.902 4.799 11.996 4.799 6.145 0 11.264-4.781 5.12-4.781 5.12-11.676v-52.495q8.084-1.687 22.178-3.27 14.094-1.582 26.935-1.582 12.602 0 26.484 1.619 13.881 1.62 22.833 3.293v52.432q0 6.896 4.72 11.678 4.719 4.782 12.466 4.782 5.623 0 11.003-4.799 5.381-4.799 5.381-11.723v-39.239q35.674 19.761 57.891 54.589 22.217 34.827 22.217 79.829h10.728q9.408 0 16.199 6.783 6.791 6.783 6.791 16.064 0 9.226-6.879 15.821-6.879 6.594-16.317 6.594H523.63q0 69.782-46.164 116.062t-117.913 46.28Zm-.061-77.544q39.312 0 63.073-23.987 23.761-23.987 23.761-63.861H273.674q0 39.805 23.104 63.827 23.105 24.021 62.714 24.021Zm307.353 159.022-2.89-29.776q-7.184-3.699-14.276-8.462-7.092-4.762-12.853-9.46l-26.761 13.459-22.761-34.159 26-20.203q-2-3.668-2-6.835v-13.586q0-3.119 2-6.739l-26-20.522 22.761-34.043 26.761 13.239q6.761-5.239 13.667-9.728t13.572-7.75l2.876-29.761h40.86l3.415 29.823q5.893 3.139 12.512 7.658 6.62 4.519 14.381 9.758l26.761-13.239 22.76 34.043-26 20.584q.761 2.938 1.381 6.617.619 3.68.619 6.859t-.619 6.839q-.62 3.659-1.381 6.819l26 20.282-22.76 34.283-26.761-13.478q-6.761 4.478-13.769 9.206-7.007 4.728-13.124 8.448l-3.415 29.824h-40.956Zm20.742-65.044q15 0 26.12-10.371 11.119-10.372 11.119-26.868 0-16.495-11.072-26.867-11.071-10.372-26.787-10.372-15.619 0-26.239 10.372-10.619 10.372-10.619 26.867 0 16.496 10.419 26.868 10.42 10.371 27.059 10.371Zm87.674-151.587-9.761-37.804q-10-4-19.859-10.739-9.858-6.739-15.858-13.978l-47.365 16-22.244-38.566 37.044-30.804q-2.24-5.149-3.24-10.739-1-5.59-1-10.739 0-5.224 1-10.739 1-5.515 3.24-10.979l-37.044-30.804 22.244-38.326 47.365 16q6-7 15.858-14.359 9.859-7.358 19.859-10.358l9.636-37.805h42.451l9.761 37.805q9 3 18.756 10.334 9.756 7.335 16.961 14.383l47.365-16 22.244 38.326-37.044 30.804q1.24 5.464 2.74 10.979 1.5 5.515 1.5 10.739 0 5.149-1.5 10.739-1.5 5.59-2.74 10.739l37.044 30.804-22.244 38.566-47.365-16q-7.205 7.287-16.961 14.002-9.756 6.715-18.756 10.715l-9.636 37.804h-42.451Zm20.528-80.13q24.755 0 41.374-16.275 16.62-16.275 16.62-40.949t-16.4-40.964q-16.4-16.29-41.255-16.29-24.855 0-40.959 16.177-16.104 16.177-16.104 40.83 0 24.652 15.985 41.061 15.985 16.41 40.739 16.41ZM104.87-184.913h510.26-510.26Z"/></svg>